<svg width="16" height="16" viewBox="0 0 16 16" fill="none" xmlns="http://www.w3.org/2000/svg">
  <path id="Vector"
    d="M5.66667 5.66667V3.48889C5.66667 2.61778 5.66667 2.18222 5.83622 1.84933C5.98556 1.55611 6.22278 1.31889 6.516 1.16956C6.84889 1 7.28444 1 8.15556 1H12.5111C13.3822 1 13.8178 1 14.1507 1.16956C14.4434 1.31869 14.6813 1.55665 14.8304 1.84933C15 2.18222 15 2.61778 15 3.48889V7.84444C15 8.71556 15 9.15111 14.8304 9.484C14.6812 9.77662 14.4433 10.0146 14.1507 10.1638C13.8178 10.3333 13.3822 10.3333 12.5134 10.3333H10.3333M5.66667 5.66667H3.48889C2.61778 5.66667 2.18222 5.66667 1.84933 5.83622C1.55662 5.98531 1.31865 6.22328 1.16956 6.516C1 6.84889 1 7.28444 1 8.15556V12.5111C1 13.3822 1 13.8178 1.16956 14.1507C1.31869 14.4434 1.55665 14.6813 1.84933 14.8304C2.18144 15 2.617 15 3.48656 15H7.84756C8.71633 15 9.15111 15 9.484 14.8304C9.77668 14.6813 10.0146 14.4434 10.1638 14.1507C10.3333 13.8178 10.3333 13.383 10.3333 12.5134V10.3333M5.66667 5.66667H7.84444C8.71556 5.66667 9.15111 5.66667 9.484 5.83622C9.77668 5.98536 10.0146 6.22332 10.1638 6.516C10.3333 6.84811 10.3333 7.28367 10.3333 8.15322V10.3333"
    stroke="white" stroke-width="2" stroke-linecap="round" stroke-linejoin="round" />
</svg>